<mxfile host="app.diagrams.net" modified="2024-06-14T13:11:05.198Z" agent="Mozilla/5.0 (Windows NT 10.0; Win64; x64) AppleWebKit/537.36 (KHTML, like Gecko) Chrome/125.0.0.0 Safari/537.36" etag="PuCmdey1Wo9jS5skqICG" version="24.5.4" type="github">
  <diagram id="C5RBs43oDa-KdzZeNtuy" name="Page-1">
    <mxGraphModel dx="794" dy="1615" grid="1" gridSize="10" guides="1" tooltips="1" connect="1" arrows="1" fold="1" page="1" pageScale="1" pageWidth="827" pageHeight="1169" background="none" math="0" shadow="0">
      <root>
        <mxCell id="WIyWlLk6GJQsqaUBKTNV-0" />
        <mxCell id="WIyWlLk6GJQsqaUBKTNV-1" parent="WIyWlLk6GJQsqaUBKTNV-0" />
        <mxCell id="zkfFHV4jXpPFQw0GAbJ--0" value="dwh.st_hr_ts_employee" style="swimlane;fontStyle=2;align=center;verticalAlign=top;childLayout=stackLayout;horizontal=1;startSize=26;horizontalStack=0;resizeParent=1;resizeLast=0;collapsible=1;marginBottom=0;rounded=0;shadow=0;strokeWidth=1;labelBackgroundColor=none;fillColor=#B2C9AB;strokeColor=#788AA3;fontColor=#46495D;" parent="WIyWlLk6GJQsqaUBKTNV-1" vertex="1">
          <mxGeometry x="1087" y="-630" width="160" height="260" as="geometry">
            <mxRectangle x="230" y="140" width="160" height="26" as="alternateBounds" />
          </mxGeometry>
        </mxCell>
        <mxCell id="a790zgOvJ1IWxHvhooZM-73" value="Date Historisation" style="text;align=left;verticalAlign=top;spacingLeft=4;spacingRight=4;overflow=hidden;rotatable=0;points=[[0,0.5],[1,0.5]];portConstraint=eastwest;textShadow=0;fontStyle=3;labelBackgroundColor=none;fontColor=#46495D;" parent="zkfFHV4jXpPFQw0GAbJ--0" vertex="1">
          <mxGeometry y="26" width="160" height="26" as="geometry" />
        </mxCell>
        <mxCell id="zkfFHV4jXpPFQw0GAbJ--1" value="Matricule" style="text;align=left;verticalAlign=top;spacingLeft=4;spacingRight=4;overflow=hidden;rotatable=0;points=[[0,0.5],[1,0.5]];portConstraint=eastwest;labelBackgroundColor=none;fontColor=#46495D;" parent="zkfFHV4jXpPFQw0GAbJ--0" vertex="1">
          <mxGeometry y="52" width="160" height="26" as="geometry" />
        </mxCell>
        <mxCell id="zkfFHV4jXpPFQw0GAbJ--2" value="Nom" style="text;align=left;verticalAlign=top;spacingLeft=4;spacingRight=4;overflow=hidden;rotatable=0;points=[[0,0.5],[1,0.5]];portConstraint=eastwest;rounded=0;shadow=0;html=0;labelBackgroundColor=none;fontColor=#46495D;" parent="zkfFHV4jXpPFQw0GAbJ--0" vertex="1">
          <mxGeometry y="78" width="160" height="26" as="geometry" />
        </mxCell>
        <mxCell id="zkfFHV4jXpPFQw0GAbJ--3" value="Prénom" style="text;align=left;verticalAlign=top;spacingLeft=4;spacingRight=4;overflow=hidden;rotatable=0;points=[[0,0.5],[1,0.5]];portConstraint=eastwest;rounded=0;shadow=0;html=0;labelBackgroundColor=none;fontColor=#46495D;" parent="zkfFHV4jXpPFQw0GAbJ--0" vertex="1">
          <mxGeometry y="104" width="160" height="26" as="geometry" />
        </mxCell>
        <mxCell id="sApf0OATTrE4GH2_RHBY-6" value="Titre" style="text;align=left;verticalAlign=top;spacingLeft=4;spacingRight=4;overflow=hidden;rotatable=0;points=[[0,0.5],[1,0.5]];portConstraint=eastwest;fontStyle=1;labelBackgroundColor=none;fontColor=#46495D;" parent="zkfFHV4jXpPFQw0GAbJ--0" vertex="1">
          <mxGeometry y="130" width="160" height="26" as="geometry" />
        </mxCell>
        <mxCell id="sApf0OATTrE4GH2_RHBY-0" value="Genre" style="text;align=left;verticalAlign=top;spacingLeft=4;spacingRight=4;overflow=hidden;rotatable=0;points=[[0,0.5],[1,0.5]];portConstraint=eastwest;rounded=0;shadow=0;html=0;fontStyle=1;labelBackgroundColor=none;fontColor=#46495D;" parent="zkfFHV4jXpPFQw0GAbJ--0" vertex="1">
          <mxGeometry y="156" width="160" height="26" as="geometry" />
        </mxCell>
        <mxCell id="sApf0OATTrE4GH2_RHBY-1" value="N° Sécurité Sociale&#xa;" style="text;align=left;verticalAlign=top;spacingLeft=4;spacingRight=4;overflow=hidden;rotatable=0;points=[[0,0.5],[1,0.5]];portConstraint=eastwest;rounded=0;shadow=0;html=0;labelBackgroundColor=none;fontColor=#46495D;" parent="zkfFHV4jXpPFQw0GAbJ--0" vertex="1">
          <mxGeometry y="182" width="160" height="26" as="geometry" />
        </mxCell>
        <mxCell id="a790zgOvJ1IWxHvhooZM-9" value="......" style="text;align=left;verticalAlign=top;spacingLeft=4;spacingRight=4;overflow=hidden;rotatable=0;points=[[0,0.5],[1,0.5]];portConstraint=eastwest;rounded=0;shadow=0;html=0;labelBackgroundColor=none;fontColor=#46495D;" parent="zkfFHV4jXpPFQw0GAbJ--0" vertex="1">
          <mxGeometry y="208" width="160" height="26" as="geometry" />
        </mxCell>
        <mxCell id="sApf0OATTrE4GH2_RHBY-5" value="Emploi courant" style="text;align=left;verticalAlign=top;spacingLeft=4;spacingRight=4;overflow=hidden;rotatable=0;points=[[0,0.5],[1,0.5]];portConstraint=eastwest;rounded=0;shadow=0;html=0;fontStyle=1;labelBackgroundColor=none;fontColor=#46495D;" parent="zkfFHV4jXpPFQw0GAbJ--0" vertex="1">
          <mxGeometry y="234" width="160" height="26" as="geometry" />
        </mxCell>
        <mxCell id="a790zgOvJ1IWxHvhooZM-0" value="TalentSoft" style="ellipse;whiteSpace=wrap;html=1;aspect=fixed;labelBackgroundColor=none;fillColor=#B2C9AB;strokeColor=#788AA3;fontColor=#46495D;" parent="WIyWlLk6GJQsqaUBKTNV-1" vertex="1">
          <mxGeometry x="30" y="102" width="80" height="80" as="geometry" />
        </mxCell>
        <mxCell id="a790zgOvJ1IWxHvhooZM-28" value="" style="endArrow=classic;html=1;rounded=0;exitX=1;exitY=0.5;exitDx=0;exitDy=0;labelBackgroundColor=none;strokeColor=#788AA3;fontColor=default;" parent="WIyWlLk6GJQsqaUBKTNV-1" source="a790zgOvJ1IWxHvhooZM-0" target="a790zgOvJ1IWxHvhooZM-4" edge="1">
          <mxGeometry relative="1" as="geometry">
            <mxPoint x="120" y="222" as="sourcePoint" />
            <mxPoint x="190" y="221.5" as="targetPoint" />
          </mxGeometry>
        </mxCell>
        <mxCell id="a790zgOvJ1IWxHvhooZM-29" value="API" style="edgeLabel;resizable=0;html=1;;align=center;verticalAlign=middle;labelBackgroundColor=none;fontColor=#46495D;" parent="a790zgOvJ1IWxHvhooZM-28" connectable="0" vertex="1">
          <mxGeometry relative="1" as="geometry">
            <mxPoint x="-10" y="-10" as="offset" />
          </mxGeometry>
        </mxCell>
        <mxCell id="a790zgOvJ1IWxHvhooZM-34" value="Référence Métier" style="swimlane;fontStyle=2;align=center;verticalAlign=top;childLayout=stackLayout;horizontal=1;startSize=26;horizontalStack=0;resizeParent=1;resizeLast=0;collapsible=1;marginBottom=0;rounded=0;shadow=0;strokeWidth=1;labelBackgroundColor=none;fillColor=#B2C9AB;strokeColor=#788AA3;fontColor=#46495D;" parent="WIyWlLk6GJQsqaUBKTNV-1" vertex="1">
          <mxGeometry x="430" y="341" width="160" height="159" as="geometry">
            <mxRectangle x="230" y="140" width="160" height="26" as="alternateBounds" />
          </mxGeometry>
        </mxCell>
        <mxCell id="a790zgOvJ1IWxHvhooZM-35" value="Date Historisation ?" style="text;align=left;verticalAlign=top;spacingLeft=4;spacingRight=4;overflow=hidden;rotatable=0;points=[[0,0.5],[1,0.5]];portConstraint=eastwest;fontStyle=3;labelBackgroundColor=none;fontColor=#46495D;" parent="a790zgOvJ1IWxHvhooZM-34" vertex="1">
          <mxGeometry y="26" width="160" height="26" as="geometry" />
        </mxCell>
        <mxCell id="a790zgOvJ1IWxHvhooZM-74" value="Code Métier TS" style="text;align=left;verticalAlign=top;spacingLeft=4;spacingRight=4;overflow=hidden;rotatable=0;points=[[0,0.5],[1,0.5]];portConstraint=eastwest;labelBackgroundColor=none;fontColor=#46495D;" parent="a790zgOvJ1IWxHvhooZM-34" vertex="1">
          <mxGeometry y="52" width="160" height="26" as="geometry" />
        </mxCell>
        <mxCell id="a790zgOvJ1IWxHvhooZM-36" value="Libellé Métier TS" style="text;align=left;verticalAlign=top;spacingLeft=4;spacingRight=4;overflow=hidden;rotatable=0;points=[[0,0.5],[1,0.5]];portConstraint=eastwest;rounded=0;shadow=0;html=0;labelBackgroundColor=none;fontColor=#46495D;" parent="a790zgOvJ1IWxHvhooZM-34" vertex="1">
          <mxGeometry y="78" width="160" height="26" as="geometry" />
        </mxCell>
        <mxCell id="1PGeIRstqMpsxhzgR6BJ-26" value="Code Métier ADP" style="text;align=left;verticalAlign=top;spacingLeft=4;spacingRight=4;overflow=hidden;rotatable=0;points=[[0,0.5],[1,0.5]];portConstraint=eastwest;labelBackgroundColor=none;fontColor=#46495D;" parent="a790zgOvJ1IWxHvhooZM-34" vertex="1">
          <mxGeometry y="104" width="160" height="26" as="geometry" />
        </mxCell>
        <mxCell id="1PGeIRstqMpsxhzgR6BJ-27" value="Libellé Métier ADP" style="text;align=left;verticalAlign=top;spacingLeft=4;spacingRight=4;overflow=hidden;rotatable=0;points=[[0,0.5],[1,0.5]];portConstraint=eastwest;rounded=0;shadow=0;html=0;labelBackgroundColor=none;fontColor=#46495D;" parent="a790zgOvJ1IWxHvhooZM-34" vertex="1">
          <mxGeometry y="130" width="160" height="26" as="geometry" />
        </mxCell>
        <mxCell id="a790zgOvJ1IWxHvhooZM-44" value="Référence Structure Org" style="swimlane;fontStyle=2;align=center;verticalAlign=top;childLayout=stackLayout;horizontal=1;startSize=26;horizontalStack=0;resizeParent=1;resizeLast=0;collapsible=1;marginBottom=0;rounded=0;shadow=0;strokeWidth=1;labelBackgroundColor=none;fillColor=#B2C9AB;strokeColor=#788AA3;fontColor=#46495D;" parent="WIyWlLk6GJQsqaUBKTNV-1" vertex="1">
          <mxGeometry x="430" y="535" width="160" height="78" as="geometry">
            <mxRectangle x="230" y="140" width="160" height="26" as="alternateBounds" />
          </mxGeometry>
        </mxCell>
        <mxCell id="a790zgOvJ1IWxHvhooZM-45" value="Date Historisation ?" style="text;align=left;verticalAlign=top;spacingLeft=4;spacingRight=4;overflow=hidden;rotatable=0;points=[[0,0.5],[1,0.5]];portConstraint=eastwest;fontStyle=3;labelBackgroundColor=none;fontColor=#46495D;" parent="a790zgOvJ1IWxHvhooZM-44" vertex="1">
          <mxGeometry y="26" width="160" height="26" as="geometry" />
        </mxCell>
        <mxCell id="a790zgOvJ1IWxHvhooZM-75" value="......" style="text;align=left;verticalAlign=top;spacingLeft=4;spacingRight=4;overflow=hidden;rotatable=0;points=[[0,0.5],[1,0.5]];portConstraint=eastwest;labelBackgroundColor=none;fontColor=#46495D;" parent="a790zgOvJ1IWxHvhooZM-44" vertex="1">
          <mxGeometry y="52" width="160" height="26" as="geometry" />
        </mxCell>
        <mxCell id="a790zgOvJ1IWxHvhooZM-4" value="Source fichier Json&lt;div&gt;&lt;p style=&quot;margin-top: 0pt; margin-bottom: 0pt; margin-left: 0in; text-align: left; font-size: 10px;&quot;&gt;&lt;span style=&quot;font-family: Calibri; vertical-align: baseline;&quot;&gt;Data Lake Storage Gen2&lt;/span&gt;&lt;span style=&quot;font-size:11.0pt;font-family:Calibri;&lt;br/&gt;mso-ascii-font-family:Calibri;mso-fareast-font-family:Calibri;mso-bidi-font-family:&lt;br/&gt;Calibri;mso-ascii-theme-font:minor-latin;mso-fareast-theme-font:minor-fareast;&lt;br/&gt;mso-bidi-theme-font:minor-bidi;color:white;mso-color-index:14;language:fr;&lt;br/&gt;mso-style-textfill-type:solid;mso-style-textfill-fill-themecolor:light1;&lt;br/&gt;mso-style-textfill-fill-color:white;mso-style-textfill-fill-alpha:100.0%&quot;&gt; &lt;/span&gt;&lt;/p&gt;&lt;/div&gt;" style="rounded=0;whiteSpace=wrap;html=1;labelBackgroundColor=none;fillColor=#B2C9AB;strokeColor=#788AA3;fontColor=#46495D;" parent="WIyWlLk6GJQsqaUBKTNV-1" vertex="1">
          <mxGeometry x="150" y="112" width="180" height="60" as="geometry" />
        </mxCell>
        <mxCell id="a790zgOvJ1IWxHvhooZM-82" value="" style="endArrow=classic;html=1;rounded=0;exitX=1;exitY=0.5;exitDx=0;exitDy=0;labelBackgroundColor=none;strokeColor=#788AA3;fontColor=default;entryX=0;entryY=0.5;entryDx=0;entryDy=0;" parent="WIyWlLk6GJQsqaUBKTNV-1" source="a790zgOvJ1IWxHvhooZM-4" target="R_vnRSND07xOm1OVQKae-5" edge="1">
          <mxGeometry relative="1" as="geometry">
            <mxPoint x="290" y="162" as="sourcePoint" />
            <mxPoint x="380" y="162" as="targetPoint" />
            <Array as="points" />
          </mxGeometry>
        </mxCell>
        <mxCell id="a790zgOvJ1IWxHvhooZM-83" value="Référence" style="edgeLabel;resizable=0;html=1;;align=center;verticalAlign=middle;labelBackgroundColor=none;fontColor=#46495D;" parent="a790zgOvJ1IWxHvhooZM-82" connectable="0" vertex="1">
          <mxGeometry relative="1" as="geometry">
            <mxPoint x="-9" y="-10" as="offset" />
          </mxGeometry>
        </mxCell>
        <mxCell id="a790zgOvJ1IWxHvhooZM-85" value="Salarié Transformé ADP" style="swimlane;fontStyle=2;align=center;verticalAlign=top;childLayout=stackLayout;horizontal=1;startSize=26;horizontalStack=0;resizeParent=1;resizeLast=0;collapsible=1;marginBottom=0;rounded=0;shadow=0;strokeWidth=1;labelBackgroundColor=none;fillColor=#B2C9AB;strokeColor=#788AA3;fontColor=#46495D;" parent="WIyWlLk6GJQsqaUBKTNV-1" vertex="1">
          <mxGeometry x="1340" y="280" width="160" height="260" as="geometry">
            <mxRectangle x="920" y="12" width="160" height="26" as="alternateBounds" />
          </mxGeometry>
        </mxCell>
        <mxCell id="a790zgOvJ1IWxHvhooZM-86" value="Date Transformé" style="text;align=left;verticalAlign=top;spacingLeft=4;spacingRight=4;overflow=hidden;rotatable=0;points=[[0,0.5],[1,0.5]];portConstraint=eastwest;textShadow=0;fontStyle=3;labelBackgroundColor=none;fontColor=#46495D;" parent="a790zgOvJ1IWxHvhooZM-85" vertex="1">
          <mxGeometry y="26" width="160" height="26" as="geometry" />
        </mxCell>
        <mxCell id="a790zgOvJ1IWxHvhooZM-87" value="Matricule" style="text;align=left;verticalAlign=top;spacingLeft=4;spacingRight=4;overflow=hidden;rotatable=0;points=[[0,0.5],[1,0.5]];portConstraint=eastwest;labelBackgroundColor=none;fontColor=#46495D;" parent="a790zgOvJ1IWxHvhooZM-85" vertex="1">
          <mxGeometry y="52" width="160" height="26" as="geometry" />
        </mxCell>
        <mxCell id="a790zgOvJ1IWxHvhooZM-88" value="Nom" style="text;align=left;verticalAlign=top;spacingLeft=4;spacingRight=4;overflow=hidden;rotatable=0;points=[[0,0.5],[1,0.5]];portConstraint=eastwest;rounded=0;shadow=0;html=0;labelBackgroundColor=none;fontColor=#46495D;" parent="a790zgOvJ1IWxHvhooZM-85" vertex="1">
          <mxGeometry y="78" width="160" height="26" as="geometry" />
        </mxCell>
        <mxCell id="a790zgOvJ1IWxHvhooZM-89" value="Prénom" style="text;align=left;verticalAlign=top;spacingLeft=4;spacingRight=4;overflow=hidden;rotatable=0;points=[[0,0.5],[1,0.5]];portConstraint=eastwest;rounded=0;shadow=0;html=0;labelBackgroundColor=none;fontColor=#46495D;" parent="a790zgOvJ1IWxHvhooZM-85" vertex="1">
          <mxGeometry y="104" width="160" height="26" as="geometry" />
        </mxCell>
        <mxCell id="a790zgOvJ1IWxHvhooZM-90" value="Qualite" style="text;align=left;verticalAlign=top;spacingLeft=4;spacingRight=4;overflow=hidden;rotatable=0;points=[[0,0.5],[1,0.5]];portConstraint=eastwest;fontStyle=1;labelBackgroundColor=none;fontColor=#46495D;" parent="a790zgOvJ1IWxHvhooZM-85" vertex="1">
          <mxGeometry y="130" width="160" height="26" as="geometry" />
        </mxCell>
        <mxCell id="a790zgOvJ1IWxHvhooZM-91" value="Sex" style="text;align=left;verticalAlign=top;spacingLeft=4;spacingRight=4;overflow=hidden;rotatable=0;points=[[0,0.5],[1,0.5]];portConstraint=eastwest;rounded=0;shadow=0;html=0;fontStyle=1;labelBackgroundColor=none;fontColor=#46495D;" parent="a790zgOvJ1IWxHvhooZM-85" vertex="1">
          <mxGeometry y="156" width="160" height="26" as="geometry" />
        </mxCell>
        <mxCell id="a790zgOvJ1IWxHvhooZM-92" value="N° Sécurité Sociale&#xa;" style="text;align=left;verticalAlign=top;spacingLeft=4;spacingRight=4;overflow=hidden;rotatable=0;points=[[0,0.5],[1,0.5]];portConstraint=eastwest;rounded=0;shadow=0;html=0;labelBackgroundColor=none;fontColor=#46495D;" parent="a790zgOvJ1IWxHvhooZM-85" vertex="1">
          <mxGeometry y="182" width="160" height="26" as="geometry" />
        </mxCell>
        <mxCell id="a790zgOvJ1IWxHvhooZM-93" value="......" style="text;align=left;verticalAlign=top;spacingLeft=4;spacingRight=4;overflow=hidden;rotatable=0;points=[[0,0.5],[1,0.5]];portConstraint=eastwest;rounded=0;shadow=0;html=0;labelBackgroundColor=none;fontColor=#46495D;" parent="a790zgOvJ1IWxHvhooZM-85" vertex="1">
          <mxGeometry y="208" width="160" height="26" as="geometry" />
        </mxCell>
        <mxCell id="a790zgOvJ1IWxHvhooZM-94" value="Emploi" style="text;align=left;verticalAlign=top;spacingLeft=4;spacingRight=4;overflow=hidden;rotatable=0;points=[[0,0.5],[1,0.5]];portConstraint=eastwest;rounded=0;shadow=0;html=0;fontStyle=1;labelBackgroundColor=none;fontColor=#46495D;" parent="a790zgOvJ1IWxHvhooZM-85" vertex="1">
          <mxGeometry y="234" width="160" height="26" as="geometry" />
        </mxCell>
        <mxCell id="a790zgOvJ1IWxHvhooZM-98" value="ADP" style="ellipse;whiteSpace=wrap;html=1;aspect=fixed;labelBackgroundColor=none;fillColor=#B2C9AB;strokeColor=#788AA3;fontColor=#46495D;" parent="WIyWlLk6GJQsqaUBKTNV-1" vertex="1">
          <mxGeometry x="1510" y="-10" width="80" height="80" as="geometry" />
        </mxCell>
        <mxCell id="a790zgOvJ1IWxHvhooZM-100" value="" style="endArrow=classic;html=1;rounded=0;exitX=1.006;exitY=1.077;exitDx=0;exitDy=0;exitPerimeter=0;labelBackgroundColor=none;strokeColor=#788AA3;fontColor=default;" parent="WIyWlLk6GJQsqaUBKTNV-1" source="a790zgOvJ1IWxHvhooZM-89" target="a790zgOvJ1IWxHvhooZM-98" edge="1">
          <mxGeometry relative="1" as="geometry">
            <mxPoint x="1090" y="132" as="sourcePoint" />
            <mxPoint x="1166.28" y="132.002" as="targetPoint" />
            <Array as="points" />
          </mxGeometry>
        </mxCell>
        <mxCell id="a790zgOvJ1IWxHvhooZM-101" value="API" style="edgeLabel;resizable=0;html=1;;align=center;verticalAlign=middle;labelBackgroundColor=none;fontColor=#46495D;" parent="a790zgOvJ1IWxHvhooZM-100" connectable="0" vertex="1">
          <mxGeometry relative="1" as="geometry">
            <mxPoint x="-9" y="-10" as="offset" />
          </mxGeometry>
        </mxCell>
        <mxCell id="a790zgOvJ1IWxHvhooZM-133" value="Rejet de source TS" style="swimlane;fontStyle=2;align=center;verticalAlign=top;childLayout=stackLayout;horizontal=1;startSize=26;horizontalStack=0;resizeParent=1;resizeLast=0;collapsible=1;marginBottom=0;rounded=0;shadow=0;strokeWidth=1;labelBackgroundColor=none;fillColor=#B2C9AB;strokeColor=#788AA3;fontColor=#46495D;" parent="WIyWlLk6GJQsqaUBKTNV-1" vertex="1" collapsed="1">
          <mxGeometry x="1023" y="660" width="160" height="26" as="geometry">
            <mxRectangle x="920" y="312" width="160" height="156" as="alternateBounds" />
          </mxGeometry>
        </mxCell>
        <mxCell id="a790zgOvJ1IWxHvhooZM-134" value="Date Rejet" style="text;align=left;verticalAlign=top;spacingLeft=4;spacingRight=4;overflow=hidden;rotatable=0;points=[[0,0.5],[1,0.5]];portConstraint=eastwest;fontStyle=3;labelBackgroundColor=none;fontColor=#46495D;" parent="a790zgOvJ1IWxHvhooZM-133" vertex="1">
          <mxGeometry y="26" width="160" height="26" as="geometry" />
        </mxCell>
        <mxCell id="a790zgOvJ1IWxHvhooZM-184" value="Code Rejet" style="text;align=left;verticalAlign=top;spacingLeft=4;spacingRight=4;overflow=hidden;rotatable=0;points=[[0,0.5],[1,0.5]];portConstraint=eastwest;fontStyle=0;labelBackgroundColor=none;fontColor=#46495D;" parent="a790zgOvJ1IWxHvhooZM-133" vertex="1">
          <mxGeometry y="52" width="160" height="26" as="geometry" />
        </mxCell>
        <mxCell id="a790zgOvJ1IWxHvhooZM-185" value="Desc Rejet" style="text;align=left;verticalAlign=top;spacingLeft=4;spacingRight=4;overflow=hidden;rotatable=0;points=[[0,0.5],[1,0.5]];portConstraint=eastwest;fontStyle=0;labelBackgroundColor=none;fontColor=#46495D;" parent="a790zgOvJ1IWxHvhooZM-133" vertex="1">
          <mxGeometry y="78" width="160" height="26" as="geometry" />
        </mxCell>
        <mxCell id="a790zgOvJ1IWxHvhooZM-186" value="Niveau Rejet" style="text;align=left;verticalAlign=top;spacingLeft=4;spacingRight=4;overflow=hidden;rotatable=0;points=[[0,0.5],[1,0.5]];portConstraint=eastwest;fontStyle=0;labelBackgroundColor=none;fontColor=#46495D;" parent="a790zgOvJ1IWxHvhooZM-133" vertex="1">
          <mxGeometry y="104" width="160" height="26" as="geometry" />
        </mxCell>
        <mxCell id="a790zgOvJ1IWxHvhooZM-135" value="......" style="text;align=left;verticalAlign=top;spacingLeft=4;spacingRight=4;overflow=hidden;rotatable=0;points=[[0,0.5],[1,0.5]];portConstraint=eastwest;labelBackgroundColor=none;fontColor=#46495D;" parent="a790zgOvJ1IWxHvhooZM-133" vertex="1">
          <mxGeometry y="130" width="160" height="26" as="geometry" />
        </mxCell>
        <mxCell id="a790zgOvJ1IWxHvhooZM-137" value="S&#39;il a des fautes dans la vérification,&amp;nbsp;&lt;span style=&quot;background-color: initial;&quot;&gt;eg:&amp;nbsp;&lt;/span&gt;&lt;div&gt;&lt;span style=&quot;background-color: initial;&quot;&gt;référentiel métier non trouvé dans ADP&lt;/span&gt;&lt;/div&gt;" style="text;html=1;align=center;verticalAlign=middle;resizable=0;points=[];autosize=1;strokeColor=none;fillColor=none;labelBackgroundColor=none;fontColor=#46495D;" parent="WIyWlLk6GJQsqaUBKTNV-1" vertex="1">
          <mxGeometry x="600" y="301" width="240" height="40" as="geometry" />
        </mxCell>
        <mxCell id="a790zgOvJ1IWxHvhooZM-138" value="Salarié Brut ADP" style="swimlane;fontStyle=2;align=center;verticalAlign=top;childLayout=stackLayout;horizontal=1;startSize=26;horizontalStack=0;resizeParent=1;resizeLast=0;collapsible=1;marginBottom=0;rounded=0;shadow=0;strokeWidth=1;labelBackgroundColor=none;fillColor=#B2C9AB;strokeColor=#788AA3;fontColor=#46495D;" parent="WIyWlLk6GJQsqaUBKTNV-1" vertex="1">
          <mxGeometry x="430" y="769" width="160" height="286" as="geometry">
            <mxRectangle x="230" y="140" width="160" height="26" as="alternateBounds" />
          </mxGeometry>
        </mxCell>
        <mxCell id="a790zgOvJ1IWxHvhooZM-139" value="Date Historisation" style="text;align=left;verticalAlign=top;spacingLeft=4;spacingRight=4;overflow=hidden;rotatable=0;points=[[0,0.5],[1,0.5]];portConstraint=eastwest;textShadow=0;fontStyle=3;labelBackgroundColor=none;fontColor=#46495D;" parent="a790zgOvJ1IWxHvhooZM-138" vertex="1">
          <mxGeometry y="26" width="160" height="26" as="geometry" />
        </mxCell>
        <mxCell id="a790zgOvJ1IWxHvhooZM-140" value="Matricule" style="text;align=left;verticalAlign=top;spacingLeft=4;spacingRight=4;overflow=hidden;rotatable=0;points=[[0,0.5],[1,0.5]];portConstraint=eastwest;labelBackgroundColor=none;fontColor=#46495D;" parent="a790zgOvJ1IWxHvhooZM-138" vertex="1">
          <mxGeometry y="52" width="160" height="26" as="geometry" />
        </mxCell>
        <mxCell id="a790zgOvJ1IWxHvhooZM-141" value="Nom" style="text;align=left;verticalAlign=top;spacingLeft=4;spacingRight=4;overflow=hidden;rotatable=0;points=[[0,0.5],[1,0.5]];portConstraint=eastwest;rounded=0;shadow=0;html=0;labelBackgroundColor=none;fontColor=#46495D;" parent="a790zgOvJ1IWxHvhooZM-138" vertex="1">
          <mxGeometry y="78" width="160" height="26" as="geometry" />
        </mxCell>
        <mxCell id="a790zgOvJ1IWxHvhooZM-142" value="Prénom" style="text;align=left;verticalAlign=top;spacingLeft=4;spacingRight=4;overflow=hidden;rotatable=0;points=[[0,0.5],[1,0.5]];portConstraint=eastwest;rounded=0;shadow=0;html=0;labelBackgroundColor=none;fontColor=#46495D;" parent="a790zgOvJ1IWxHvhooZM-138" vertex="1">
          <mxGeometry y="104" width="160" height="26" as="geometry" />
        </mxCell>
        <mxCell id="a790zgOvJ1IWxHvhooZM-143" value="Qualite" style="text;align=left;verticalAlign=top;spacingLeft=4;spacingRight=4;overflow=hidden;rotatable=0;points=[[0,0.5],[1,0.5]];portConstraint=eastwest;fontStyle=1;labelBackgroundColor=none;fontColor=#46495D;" parent="a790zgOvJ1IWxHvhooZM-138" vertex="1">
          <mxGeometry y="130" width="160" height="26" as="geometry" />
        </mxCell>
        <mxCell id="a790zgOvJ1IWxHvhooZM-144" value="Sex" style="text;align=left;verticalAlign=top;spacingLeft=4;spacingRight=4;overflow=hidden;rotatable=0;points=[[0,0.5],[1,0.5]];portConstraint=eastwest;rounded=0;shadow=0;html=0;fontStyle=1;labelBackgroundColor=none;fontColor=#46495D;" parent="a790zgOvJ1IWxHvhooZM-138" vertex="1">
          <mxGeometry y="156" width="160" height="26" as="geometry" />
        </mxCell>
        <mxCell id="a790zgOvJ1IWxHvhooZM-145" value="N° Sécurité Sociale&#xa;" style="text;align=left;verticalAlign=top;spacingLeft=4;spacingRight=4;overflow=hidden;rotatable=0;points=[[0,0.5],[1,0.5]];portConstraint=eastwest;rounded=0;shadow=0;html=0;labelBackgroundColor=none;fontColor=#46495D;" parent="a790zgOvJ1IWxHvhooZM-138" vertex="1">
          <mxGeometry y="182" width="160" height="26" as="geometry" />
        </mxCell>
        <mxCell id="a790zgOvJ1IWxHvhooZM-146" value="......" style="text;align=left;verticalAlign=top;spacingLeft=4;spacingRight=4;overflow=hidden;rotatable=0;points=[[0,0.5],[1,0.5]];portConstraint=eastwest;rounded=0;shadow=0;html=0;labelBackgroundColor=none;fontColor=#46495D;" parent="a790zgOvJ1IWxHvhooZM-138" vertex="1">
          <mxGeometry y="208" width="160" height="26" as="geometry" />
        </mxCell>
        <mxCell id="a790zgOvJ1IWxHvhooZM-147" value="Salaire mensuel&#xa;" style="text;align=left;verticalAlign=top;spacingLeft=4;spacingRight=4;overflow=hidden;rotatable=0;points=[[0,0.5],[1,0.5]];portConstraint=eastwest;rounded=0;shadow=0;html=0;fontStyle=1;labelBackgroundColor=none;fontColor=#46495D;" parent="a790zgOvJ1IWxHvhooZM-138" vertex="1">
          <mxGeometry y="234" width="160" height="26" as="geometry" />
        </mxCell>
        <mxCell id="a790zgOvJ1IWxHvhooZM-174" value="Primes annuelles&#xa;" style="text;align=left;verticalAlign=top;spacingLeft=4;spacingRight=4;overflow=hidden;rotatable=0;points=[[0,0.5],[1,0.5]];portConstraint=eastwest;rounded=0;shadow=0;html=0;fontStyle=1;labelBackgroundColor=none;fontColor=#46495D;" parent="a790zgOvJ1IWxHvhooZM-138" vertex="1">
          <mxGeometry y="260" width="160" height="26" as="geometry" />
        </mxCell>
        <mxCell id="a790zgOvJ1IWxHvhooZM-148" value="ADP" style="ellipse;whiteSpace=wrap;html=1;aspect=fixed;labelBackgroundColor=none;fillColor=#B2C9AB;strokeColor=#788AA3;fontColor=#46495D;" parent="WIyWlLk6GJQsqaUBKTNV-1" vertex="1">
          <mxGeometry x="40" y="859" width="80" height="80" as="geometry" />
        </mxCell>
        <mxCell id="a790zgOvJ1IWxHvhooZM-149" value="" style="endArrow=classic;html=1;rounded=0;exitX=1;exitY=0.5;exitDx=0;exitDy=0;labelBackgroundColor=none;strokeColor=#788AA3;fontColor=default;" parent="WIyWlLk6GJQsqaUBKTNV-1" source="a790zgOvJ1IWxHvhooZM-148" target="a790zgOvJ1IWxHvhooZM-151" edge="1">
          <mxGeometry relative="1" as="geometry">
            <mxPoint x="130" y="979" as="sourcePoint" />
            <mxPoint x="200" y="978.5" as="targetPoint" />
          </mxGeometry>
        </mxCell>
        <mxCell id="a790zgOvJ1IWxHvhooZM-150" value="API" style="edgeLabel;resizable=0;html=1;;align=center;verticalAlign=middle;labelBackgroundColor=none;fontColor=#46495D;" parent="a790zgOvJ1IWxHvhooZM-149" connectable="0" vertex="1">
          <mxGeometry relative="1" as="geometry">
            <mxPoint x="-10" y="-10" as="offset" />
          </mxGeometry>
        </mxCell>
        <mxCell id="a790zgOvJ1IWxHvhooZM-151" value="Fichier de source ADP" style="rounded=0;whiteSpace=wrap;html=1;labelBackgroundColor=none;fillColor=#B2C9AB;strokeColor=#788AA3;fontColor=#46495D;" parent="WIyWlLk6GJQsqaUBKTNV-1" vertex="1">
          <mxGeometry x="220" y="869" width="80" height="60" as="geometry" />
        </mxCell>
        <mxCell id="a790zgOvJ1IWxHvhooZM-152" value="" style="endArrow=classic;html=1;rounded=0;exitX=1;exitY=0.5;exitDx=0;exitDy=0;entryX=-0.025;entryY=0;entryDx=0;entryDy=0;entryPerimeter=0;labelBackgroundColor=none;strokeColor=#788AA3;fontColor=default;" parent="WIyWlLk6GJQsqaUBKTNV-1" source="a790zgOvJ1IWxHvhooZM-151" target="a790zgOvJ1IWxHvhooZM-143" edge="1">
          <mxGeometry relative="1" as="geometry">
            <mxPoint x="300" y="919" as="sourcePoint" />
            <mxPoint x="390" y="919" as="targetPoint" />
            <Array as="points" />
          </mxGeometry>
        </mxCell>
        <mxCell id="a790zgOvJ1IWxHvhooZM-153" value="Stocké/Historisé" style="edgeLabel;resizable=0;html=1;;align=center;verticalAlign=middle;labelBackgroundColor=none;fontColor=#46495D;" parent="a790zgOvJ1IWxHvhooZM-152" connectable="0" vertex="1">
          <mxGeometry relative="1" as="geometry">
            <mxPoint x="-9" y="-10" as="offset" />
          </mxGeometry>
        </mxCell>
        <mxCell id="a790zgOvJ1IWxHvhooZM-154" value="Salarié Transformé TS" style="swimlane;fontStyle=2;align=center;verticalAlign=top;childLayout=stackLayout;horizontal=1;startSize=26;horizontalStack=0;resizeParent=1;resizeLast=0;collapsible=1;marginBottom=0;rounded=0;shadow=0;strokeWidth=1;labelBackgroundColor=none;fillColor=#B2C9AB;strokeColor=#788AA3;fontColor=#46495D;" parent="WIyWlLk6GJQsqaUBKTNV-1" vertex="1">
          <mxGeometry x="960" y="769" width="160" height="286" as="geometry">
            <mxRectangle x="230" y="140" width="160" height="26" as="alternateBounds" />
          </mxGeometry>
        </mxCell>
        <mxCell id="a790zgOvJ1IWxHvhooZM-155" value="Date Transformé" style="text;align=left;verticalAlign=top;spacingLeft=4;spacingRight=4;overflow=hidden;rotatable=0;points=[[0,0.5],[1,0.5]];portConstraint=eastwest;textShadow=0;fontStyle=3;labelBackgroundColor=none;fontColor=#46495D;" parent="a790zgOvJ1IWxHvhooZM-154" vertex="1">
          <mxGeometry y="26" width="160" height="26" as="geometry" />
        </mxCell>
        <mxCell id="a790zgOvJ1IWxHvhooZM-156" value="Matricule" style="text;align=left;verticalAlign=top;spacingLeft=4;spacingRight=4;overflow=hidden;rotatable=0;points=[[0,0.5],[1,0.5]];portConstraint=eastwest;labelBackgroundColor=none;fontColor=#46495D;" parent="a790zgOvJ1IWxHvhooZM-154" vertex="1">
          <mxGeometry y="52" width="160" height="26" as="geometry" />
        </mxCell>
        <mxCell id="a790zgOvJ1IWxHvhooZM-157" value="Nom" style="text;align=left;verticalAlign=top;spacingLeft=4;spacingRight=4;overflow=hidden;rotatable=0;points=[[0,0.5],[1,0.5]];portConstraint=eastwest;rounded=0;shadow=0;html=0;labelBackgroundColor=none;fontColor=#46495D;" parent="a790zgOvJ1IWxHvhooZM-154" vertex="1">
          <mxGeometry y="78" width="160" height="26" as="geometry" />
        </mxCell>
        <mxCell id="a790zgOvJ1IWxHvhooZM-158" value="Prénom" style="text;align=left;verticalAlign=top;spacingLeft=4;spacingRight=4;overflow=hidden;rotatable=0;points=[[0,0.5],[1,0.5]];portConstraint=eastwest;rounded=0;shadow=0;html=0;labelBackgroundColor=none;fontColor=#46495D;" parent="a790zgOvJ1IWxHvhooZM-154" vertex="1">
          <mxGeometry y="104" width="160" height="26" as="geometry" />
        </mxCell>
        <mxCell id="a790zgOvJ1IWxHvhooZM-159" value="Titre" style="text;align=left;verticalAlign=top;spacingLeft=4;spacingRight=4;overflow=hidden;rotatable=0;points=[[0,0.5],[1,0.5]];portConstraint=eastwest;fontStyle=1;labelBackgroundColor=none;fontColor=#46495D;" parent="a790zgOvJ1IWxHvhooZM-154" vertex="1">
          <mxGeometry y="130" width="160" height="26" as="geometry" />
        </mxCell>
        <mxCell id="a790zgOvJ1IWxHvhooZM-160" value="Genre" style="text;align=left;verticalAlign=top;spacingLeft=4;spacingRight=4;overflow=hidden;rotatable=0;points=[[0,0.5],[1,0.5]];portConstraint=eastwest;rounded=0;shadow=0;html=0;fontStyle=1;labelBackgroundColor=none;fontColor=#46495D;" parent="a790zgOvJ1IWxHvhooZM-154" vertex="1">
          <mxGeometry y="156" width="160" height="26" as="geometry" />
        </mxCell>
        <mxCell id="a790zgOvJ1IWxHvhooZM-161" value="N° Sécurité Sociale&#xa;" style="text;align=left;verticalAlign=top;spacingLeft=4;spacingRight=4;overflow=hidden;rotatable=0;points=[[0,0.5],[1,0.5]];portConstraint=eastwest;rounded=0;shadow=0;html=0;labelBackgroundColor=none;fontColor=#46495D;" parent="a790zgOvJ1IWxHvhooZM-154" vertex="1">
          <mxGeometry y="182" width="160" height="26" as="geometry" />
        </mxCell>
        <mxCell id="a790zgOvJ1IWxHvhooZM-162" value="......" style="text;align=left;verticalAlign=top;spacingLeft=4;spacingRight=4;overflow=hidden;rotatable=0;points=[[0,0.5],[1,0.5]];portConstraint=eastwest;rounded=0;shadow=0;html=0;labelBackgroundColor=none;fontColor=#46495D;" parent="a790zgOvJ1IWxHvhooZM-154" vertex="1">
          <mxGeometry y="208" width="160" height="26" as="geometry" />
        </mxCell>
        <mxCell id="a790zgOvJ1IWxHvhooZM-163" value="Salaire de base" style="text;align=left;verticalAlign=top;spacingLeft=4;spacingRight=4;overflow=hidden;rotatable=0;points=[[0,0.5],[1,0.5]];portConstraint=eastwest;rounded=0;shadow=0;html=0;fontStyle=1;labelBackgroundColor=none;fontColor=#46495D;" parent="a790zgOvJ1IWxHvhooZM-154" vertex="1">
          <mxGeometry y="234" width="160" height="26" as="geometry" />
        </mxCell>
        <mxCell id="a790zgOvJ1IWxHvhooZM-175" value="Montant Part variable" style="text;align=left;verticalAlign=top;spacingLeft=4;spacingRight=4;overflow=hidden;rotatable=0;points=[[0,0.5],[1,0.5]];portConstraint=eastwest;rounded=0;shadow=0;html=0;fontStyle=1;labelBackgroundColor=none;fontColor=#46495D;" parent="a790zgOvJ1IWxHvhooZM-154" vertex="1">
          <mxGeometry y="260" width="160" height="26" as="geometry" />
        </mxCell>
        <mxCell id="a790zgOvJ1IWxHvhooZM-164" value="" style="endArrow=classic;html=1;rounded=0;entryX=0.019;entryY=0.923;entryDx=0;entryDy=0;entryPerimeter=0;exitX=1.006;exitY=0.923;exitDx=0;exitDy=0;exitPerimeter=0;labelBackgroundColor=none;strokeColor=#788AA3;fontColor=default;" parent="WIyWlLk6GJQsqaUBKTNV-1" source="a790zgOvJ1IWxHvhooZM-142" target="a790zgOvJ1IWxHvhooZM-158" edge="1">
          <mxGeometry relative="1" as="geometry">
            <mxPoint x="620" y="803" as="sourcePoint" />
            <mxPoint x="762.28" y="802.672" as="targetPoint" />
            <Array as="points" />
          </mxGeometry>
        </mxCell>
        <mxCell id="a790zgOvJ1IWxHvhooZM-165" value="Vérifié/Transformé" style="edgeLabel;resizable=0;html=1;;align=center;verticalAlign=middle;labelBackgroundColor=none;fontColor=#46495D;" parent="a790zgOvJ1IWxHvhooZM-164" connectable="0" vertex="1">
          <mxGeometry relative="1" as="geometry">
            <mxPoint x="-9" y="-10" as="offset" />
          </mxGeometry>
        </mxCell>
        <mxCell id="a790zgOvJ1IWxHvhooZM-166" value="TalentSoft" style="ellipse;whiteSpace=wrap;html=1;aspect=fixed;labelBackgroundColor=none;fillColor=#B2C9AB;strokeColor=#788AA3;fontColor=#46495D;" parent="WIyWlLk6GJQsqaUBKTNV-1" vertex="1">
          <mxGeometry x="1183" y="858" width="80" height="80" as="geometry" />
        </mxCell>
        <mxCell id="a790zgOvJ1IWxHvhooZM-167" value="" style="endArrow=classic;html=1;rounded=0;exitX=1;exitY=0.962;exitDx=0;exitDy=0;exitPerimeter=0;entryX=0;entryY=0.5;entryDx=0;entryDy=0;labelBackgroundColor=none;strokeColor=#788AA3;fontColor=default;" parent="WIyWlLk6GJQsqaUBKTNV-1" source="a790zgOvJ1IWxHvhooZM-158" target="a790zgOvJ1IWxHvhooZM-166" edge="1">
          <mxGeometry relative="1" as="geometry">
            <mxPoint x="1103" y="892" as="sourcePoint" />
            <mxPoint x="1183.0011833794297" y="887.6923167952264" as="targetPoint" />
            <Array as="points" />
          </mxGeometry>
        </mxCell>
        <mxCell id="a790zgOvJ1IWxHvhooZM-168" value="API" style="edgeLabel;resizable=0;html=1;;align=center;verticalAlign=middle;labelBackgroundColor=none;fontColor=#46495D;" parent="a790zgOvJ1IWxHvhooZM-167" connectable="0" vertex="1">
          <mxGeometry relative="1" as="geometry">
            <mxPoint x="-9" y="-10" as="offset" />
          </mxGeometry>
        </mxCell>
        <mxCell id="a790zgOvJ1IWxHvhooZM-169" value="Rejet de source ADP" style="swimlane;fontStyle=2;align=center;verticalAlign=top;childLayout=stackLayout;horizontal=1;startSize=26;horizontalStack=0;resizeParent=1;resizeLast=0;collapsible=1;marginBottom=0;rounded=0;shadow=0;strokeWidth=1;labelBackgroundColor=none;fillColor=#B2C9AB;strokeColor=#788AA3;fontColor=#46495D;" parent="WIyWlLk6GJQsqaUBKTNV-1" vertex="1">
          <mxGeometry x="923" y="1080" width="160" height="156" as="geometry">
            <mxRectangle x="230" y="140" width="160" height="26" as="alternateBounds" />
          </mxGeometry>
        </mxCell>
        <mxCell id="a790zgOvJ1IWxHvhooZM-170" value="Date Rejet" style="text;align=left;verticalAlign=top;spacingLeft=4;spacingRight=4;overflow=hidden;rotatable=0;points=[[0,0.5],[1,0.5]];portConstraint=eastwest;fontStyle=3;labelBackgroundColor=none;fontColor=#46495D;" parent="a790zgOvJ1IWxHvhooZM-169" vertex="1">
          <mxGeometry y="26" width="160" height="26" as="geometry" />
        </mxCell>
        <mxCell id="a790zgOvJ1IWxHvhooZM-171" value="Code Rejet" style="text;align=left;verticalAlign=top;spacingLeft=4;spacingRight=4;overflow=hidden;rotatable=0;points=[[0,0.5],[1,0.5]];portConstraint=eastwest;labelBackgroundColor=none;fontColor=#46495D;" parent="a790zgOvJ1IWxHvhooZM-169" vertex="1">
          <mxGeometry y="52" width="160" height="26" as="geometry" />
        </mxCell>
        <mxCell id="a790zgOvJ1IWxHvhooZM-178" value="Desc Rejet" style="text;align=left;verticalAlign=top;spacingLeft=4;spacingRight=4;overflow=hidden;rotatable=0;points=[[0,0.5],[1,0.5]];portConstraint=eastwest;labelBackgroundColor=none;fontColor=#46495D;" parent="a790zgOvJ1IWxHvhooZM-169" vertex="1">
          <mxGeometry y="78" width="160" height="26" as="geometry" />
        </mxCell>
        <mxCell id="a790zgOvJ1IWxHvhooZM-179" value="Niveau Rejet" style="text;align=left;verticalAlign=top;spacingLeft=4;spacingRight=4;overflow=hidden;rotatable=0;points=[[0,0.5],[1,0.5]];portConstraint=eastwest;labelBackgroundColor=none;fontColor=#46495D;" parent="a790zgOvJ1IWxHvhooZM-169" vertex="1">
          <mxGeometry y="104" width="160" height="26" as="geometry" />
        </mxCell>
        <mxCell id="a790zgOvJ1IWxHvhooZM-180" value="......" style="text;align=left;verticalAlign=top;spacingLeft=4;spacingRight=4;overflow=hidden;rotatable=0;points=[[0,0.5],[1,0.5]];portConstraint=eastwest;labelBackgroundColor=none;fontColor=#46495D;" parent="a790zgOvJ1IWxHvhooZM-169" vertex="1">
          <mxGeometry y="130" width="160" height="26" as="geometry" />
        </mxCell>
        <mxCell id="a790zgOvJ1IWxHvhooZM-172" style="edgeStyle=orthogonalEdgeStyle;rounded=0;orthogonalLoop=1;jettySize=auto;html=1;exitX=1;exitY=0.5;exitDx=0;exitDy=0;labelBackgroundColor=none;strokeColor=#788AA3;fontColor=default;" parent="WIyWlLk6GJQsqaUBKTNV-1" source="a790zgOvJ1IWxHvhooZM-145" edge="1">
          <mxGeometry relative="1" as="geometry">
            <mxPoint x="921" y="1140" as="targetPoint" />
            <Array as="points">
              <mxPoint x="757" y="964" />
              <mxPoint x="757" y="1140" />
              <mxPoint x="921" y="1140" />
            </Array>
          </mxGeometry>
        </mxCell>
        <mxCell id="a790zgOvJ1IWxHvhooZM-173" value="S&#39;il a des fautes dans la vérification,&amp;nbsp;&lt;span style=&quot;background-color: initial;&quot;&gt;eg:&amp;nbsp;&lt;/span&gt;&lt;div&gt;&lt;span style=&quot;background-color: initial;&quot;&gt;référentiel Cost Center non trouvé dans TS&lt;/span&gt;&lt;/div&gt;" style="text;html=1;align=center;verticalAlign=middle;resizable=0;points=[];autosize=1;strokeColor=none;fillColor=none;labelBackgroundColor=none;fontColor=#46495D;" parent="WIyWlLk6GJQsqaUBKTNV-1" vertex="1">
          <mxGeometry x="630" y="920" width="250" height="40" as="geometry" />
        </mxCell>
        <mxCell id="a790zgOvJ1IWxHvhooZM-193" value="IT/Métier" style="image;aspect=fixed;html=1;points=[];align=center;fontSize=12;image=img/lib/mscae/Person.svg;labelBackgroundColor=none;fillColor=#B2C9AB;strokeColor=#788AA3;fontColor=#46495D;imageBackground=default;" parent="WIyWlLk6GJQsqaUBKTNV-1" vertex="1">
          <mxGeometry x="1553" y="365" width="37" height="50" as="geometry" />
        </mxCell>
        <mxCell id="a790zgOvJ1IWxHvhooZM-199" value="" style="endArrow=classic;html=1;rounded=0;exitX=1.013;exitY=0.962;exitDx=0;exitDy=0;exitPerimeter=0;labelBackgroundColor=none;strokeColor=#788AA3;fontColor=default;" parent="WIyWlLk6GJQsqaUBKTNV-1" source="a790zgOvJ1IWxHvhooZM-171" edge="1">
          <mxGeometry relative="1" as="geometry">
            <mxPoint x="1093" y="1156" as="sourcePoint" />
            <mxPoint x="1183" y="1156" as="targetPoint" />
          </mxGeometry>
        </mxCell>
        <mxCell id="a790zgOvJ1IWxHvhooZM-200" value="" style="shape=message;html=1;outlineConnect=0;labelBackgroundColor=none;fillColor=#B2C9AB;strokeColor=#788AA3;fontColor=#46495D;" parent="a790zgOvJ1IWxHvhooZM-199" vertex="1">
          <mxGeometry width="20" height="14" relative="1" as="geometry">
            <mxPoint x="-11" y="-7" as="offset" />
          </mxGeometry>
        </mxCell>
        <mxCell id="a790zgOvJ1IWxHvhooZM-201" value="IT/Métier" style="image;aspect=fixed;html=1;points=[];align=center;fontSize=12;image=img/lib/mscae/Person.svg;labelBackgroundColor=none;fillColor=#B2C9AB;strokeColor=#788AA3;fontColor=#46495D;" parent="WIyWlLk6GJQsqaUBKTNV-1" vertex="1">
          <mxGeometry x="1193" y="1129" width="37" height="50" as="geometry" />
        </mxCell>
        <mxCell id="1PGeIRstqMpsxhzgR6BJ-4" value="Synthèse Globale" style="swimlane;fontStyle=2;align=center;verticalAlign=top;childLayout=stackLayout;horizontal=1;startSize=26;horizontalStack=0;resizeParent=1;resizeLast=0;collapsible=1;marginBottom=0;rounded=0;shadow=0;strokeWidth=1;labelBackgroundColor=none;fillColor=#B2C9AB;strokeColor=#788AA3;fontColor=#46495D;" parent="WIyWlLk6GJQsqaUBKTNV-1" vertex="1">
          <mxGeometry x="690" y="454.5" width="209" height="260" as="geometry">
            <mxRectangle x="230" y="140" width="160" height="26" as="alternateBounds" />
          </mxGeometry>
        </mxCell>
        <mxCell id="1PGeIRstqMpsxhzgR6BJ-5" value="Date Synthèse" style="text;align=left;verticalAlign=top;spacingLeft=4;spacingRight=4;overflow=hidden;rotatable=0;points=[[0,0.5],[1,0.5]];portConstraint=eastwest;fontStyle=3;labelBackgroundColor=none;fontColor=#46495D;" parent="1PGeIRstqMpsxhzgR6BJ-4" vertex="1">
          <mxGeometry y="26" width="209" height="26" as="geometry" />
        </mxCell>
        <mxCell id="1PGeIRstqMpsxhzgR6BJ-6" value="Source" style="text;align=left;verticalAlign=top;spacingLeft=4;spacingRight=4;overflow=hidden;rotatable=0;points=[[0,0.5],[1,0.5]];portConstraint=eastwest;fontStyle=0;labelBackgroundColor=none;fontColor=#46495D;" parent="1PGeIRstqMpsxhzgR6BJ-4" vertex="1">
          <mxGeometry y="52" width="209" height="26" as="geometry" />
        </mxCell>
        <mxCell id="1PGeIRstqMpsxhzgR6BJ-7" value="Target" style="text;align=left;verticalAlign=top;spacingLeft=4;spacingRight=4;overflow=hidden;rotatable=0;points=[[0,0.5],[1,0.5]];portConstraint=eastwest;fontStyle=0;labelBackgroundColor=none;fontColor=#46495D;" parent="1PGeIRstqMpsxhzgR6BJ-4" vertex="1">
          <mxGeometry y="78" width="209" height="26" as="geometry" />
        </mxCell>
        <mxCell id="1PGeIRstqMpsxhzgR6BJ-8" value="Nombre de INSERT" style="text;align=left;verticalAlign=top;spacingLeft=4;spacingRight=4;overflow=hidden;rotatable=0;points=[[0,0.5],[1,0.5]];portConstraint=eastwest;fontStyle=0;labelBackgroundColor=none;fontColor=#46495D;" parent="1PGeIRstqMpsxhzgR6BJ-4" vertex="1">
          <mxGeometry y="104" width="209" height="26" as="geometry" />
        </mxCell>
        <mxCell id="1PGeIRstqMpsxhzgR6BJ-9" value="Nombre de UPDATE" style="text;align=left;verticalAlign=top;spacingLeft=4;spacingRight=4;overflow=hidden;rotatable=0;points=[[0,0.5],[1,0.5]];portConstraint=eastwest;labelBackgroundColor=none;fontColor=#46495D;" parent="1PGeIRstqMpsxhzgR6BJ-4" vertex="1">
          <mxGeometry y="130" width="209" height="26" as="geometry" />
        </mxCell>
        <mxCell id="1PGeIRstqMpsxhzgR6BJ-10" value="Nombre de REJET" style="text;align=left;verticalAlign=top;spacingLeft=4;spacingRight=4;overflow=hidden;rotatable=0;points=[[0,0.5],[1,0.5]];portConstraint=eastwest;labelBackgroundColor=none;fontColor=#46495D;" parent="1PGeIRstqMpsxhzgR6BJ-4" vertex="1">
          <mxGeometry y="156" width="209" height="26" as="geometry" />
        </mxCell>
        <mxCell id="1PGeIRstqMpsxhzgR6BJ-11" value="Nombre de Non-renseigné" style="text;align=left;verticalAlign=top;spacingLeft=4;spacingRight=4;overflow=hidden;rotatable=0;points=[[0,0.5],[1,0.5]];portConstraint=eastwest;labelBackgroundColor=none;fontColor=#46495D;" parent="1PGeIRstqMpsxhzgR6BJ-4" vertex="1">
          <mxGeometry y="182" width="209" height="26" as="geometry" />
        </mxCell>
        <mxCell id="1PGeIRstqMpsxhzgR6BJ-12" value="pourcentage d&#39;évolution de la volume" style="text;align=left;verticalAlign=top;spacingLeft=4;spacingRight=4;overflow=hidden;rotatable=0;points=[[0,0.5],[1,0.5]];portConstraint=eastwest;labelBackgroundColor=none;fontColor=#46495D;" parent="1PGeIRstqMpsxhzgR6BJ-4" vertex="1">
          <mxGeometry y="208" width="209" height="26" as="geometry" />
        </mxCell>
        <mxCell id="1PGeIRstqMpsxhzgR6BJ-13" value="......" style="text;align=left;verticalAlign=top;spacingLeft=4;spacingRight=4;overflow=hidden;rotatable=0;points=[[0,0.5],[1,0.5]];portConstraint=eastwest;labelBackgroundColor=none;fontColor=#46495D;" parent="1PGeIRstqMpsxhzgR6BJ-4" vertex="1">
          <mxGeometry y="234" width="209" height="26" as="geometry" />
        </mxCell>
        <mxCell id="1PGeIRstqMpsxhzgR6BJ-15" style="edgeStyle=orthogonalEdgeStyle;rounded=0;orthogonalLoop=1;jettySize=auto;html=1;exitX=0;exitY=0.5;exitDx=0;exitDy=0;entryX=0.847;entryY=0.006;entryDx=0;entryDy=0;entryPerimeter=0;labelBackgroundColor=none;strokeColor=#788AA3;fontColor=default;" parent="WIyWlLk6GJQsqaUBKTNV-1" source="a790zgOvJ1IWxHvhooZM-186" target="1PGeIRstqMpsxhzgR6BJ-4" edge="1">
          <mxGeometry relative="1" as="geometry" />
        </mxCell>
        <mxCell id="1PGeIRstqMpsxhzgR6BJ-16" style="edgeStyle=orthogonalEdgeStyle;rounded=0;orthogonalLoop=1;jettySize=auto;html=1;exitX=0.25;exitY=0;exitDx=0;exitDy=0;entryX=1.014;entryY=0.288;entryDx=0;entryDy=0;entryPerimeter=0;labelBackgroundColor=none;strokeColor=#788AA3;fontColor=default;" parent="WIyWlLk6GJQsqaUBKTNV-1" source="a790zgOvJ1IWxHvhooZM-154" target="1PGeIRstqMpsxhzgR6BJ-11" edge="1">
          <mxGeometry relative="1" as="geometry" />
        </mxCell>
        <mxCell id="1PGeIRstqMpsxhzgR6BJ-18" style="edgeStyle=orthogonalEdgeStyle;rounded=0;orthogonalLoop=1;jettySize=auto;html=1;entryX=0.006;entryY=0.146;entryDx=0;entryDy=0;entryPerimeter=0;exitX=1;exitY=0.5;exitDx=0;exitDy=0;labelBackgroundColor=none;strokeColor=#788AA3;fontColor=default;" parent="WIyWlLk6GJQsqaUBKTNV-1" source="1PGeIRstqMpsxhzgR6BJ-22" target="a790zgOvJ1IWxHvhooZM-34" edge="1">
          <mxGeometry relative="1" as="geometry">
            <mxPoint x="110" y="360" as="sourcePoint" />
            <Array as="points">
              <mxPoint x="431" y="375" />
            </Array>
          </mxGeometry>
        </mxCell>
        <mxCell id="1PGeIRstqMpsxhzgR6BJ-20" value="alimenter les tables références" style="text;html=1;align=center;verticalAlign=middle;whiteSpace=wrap;rounded=0;labelBackgroundColor=none;fontColor=#46495D;" parent="WIyWlLk6GJQsqaUBKTNV-1" vertex="1">
          <mxGeometry x="220" y="330" width="90" height="30" as="geometry" />
        </mxCell>
        <mxCell id="1PGeIRstqMpsxhzgR6BJ-23" style="edgeStyle=orthogonalEdgeStyle;rounded=0;orthogonalLoop=1;jettySize=auto;html=1;labelBackgroundColor=none;strokeColor=#788AA3;fontColor=default;" parent="WIyWlLk6GJQsqaUBKTNV-1" source="1PGeIRstqMpsxhzgR6BJ-22" target="a790zgOvJ1IWxHvhooZM-44" edge="1">
          <mxGeometry relative="1" as="geometry">
            <Array as="points">
              <mxPoint x="100" y="550" />
            </Array>
          </mxGeometry>
        </mxCell>
        <mxCell id="1PGeIRstqMpsxhzgR6BJ-22" value="&lt;b style=&quot;font-size: 13px;&quot;&gt;Source référentiel entre TS et ADP ?&lt;/b&gt;" style="ellipse;whiteSpace=wrap;html=1;fontSize=13;fontColor=#db6d48;strokeColor=#788AA3;labelBackgroundColor=none;fillColor=#B2C9AB;" parent="WIyWlLk6GJQsqaUBKTNV-1" vertex="1">
          <mxGeometry x="40" y="335" width="120" height="80" as="geometry" />
        </mxCell>
        <mxCell id="1PGeIRstqMpsxhzgR6BJ-28" value="Vérifier/Transformer par les tables référence s" style="text;html=1;align=center;verticalAlign=middle;whiteSpace=wrap;rounded=0;rotation=0;labelBackgroundColor=none;fontColor=#46495D;" parent="WIyWlLk6GJQsqaUBKTNV-1" vertex="1">
          <mxGeometry x="640" y="350" width="60" height="30" as="geometry" />
        </mxCell>
        <mxCell id="Hs-nupGwmuqi4eDyKk9V-0" style="edgeStyle=orthogonalEdgeStyle;rounded=0;orthogonalLoop=1;jettySize=auto;html=1;exitX=0;exitY=0.5;exitDx=0;exitDy=0;entryX=1;entryY=0.5;entryDx=0;entryDy=0;strokeColor=#788a7b;" parent="WIyWlLk6GJQsqaUBKTNV-1" source="a790zgOvJ1IWxHvhooZM-170" target="1PGeIRstqMpsxhzgR6BJ-13" edge="1">
          <mxGeometry relative="1" as="geometry" />
        </mxCell>
        <mxCell id="R_vnRSND07xOm1OVQKae-1" value="ods.ex_hr_ts_employee" style="swimlane;fontStyle=2;align=center;verticalAlign=top;childLayout=stackLayout;horizontal=1;startSize=26;horizontalStack=0;resizeParent=1;resizeLast=0;collapsible=1;marginBottom=0;rounded=0;shadow=0;strokeWidth=1;labelBackgroundColor=none;fillColor=#B2C9AB;strokeColor=#788AA3;fontColor=#46495D;" vertex="1" parent="WIyWlLk6GJQsqaUBKTNV-1">
          <mxGeometry x="414" width="170" height="260" as="geometry">
            <mxRectangle x="230" y="140" width="160" height="26" as="alternateBounds" />
          </mxGeometry>
        </mxCell>
        <mxCell id="R_vnRSND07xOm1OVQKae-2" value="id_payroll nvarchar(50)" style="text;align=left;verticalAlign=top;spacingLeft=4;spacingRight=4;overflow=hidden;rotatable=0;points=[[0,0.5],[1,0.5]];portConstraint=eastwest;textShadow=0;fontStyle=0;labelBackgroundColor=none;fontColor=#46495D;" vertex="1" parent="R_vnRSND07xOm1OVQKae-1">
          <mxGeometry y="26" width="170" height="26" as="geometry" />
        </mxCell>
        <mxCell id="R_vnRSND07xOm1OVQKae-3" value="cd_matricule nvarchar(50)" style="text;align=left;verticalAlign=top;spacingLeft=4;spacingRight=4;overflow=hidden;rotatable=0;points=[[0,0.5],[1,0.5]];portConstraint=eastwest;labelBackgroundColor=none;fontColor=#46495D;" vertex="1" parent="R_vnRSND07xOm1OVQKae-1">
          <mxGeometry y="52" width="170" height="26" as="geometry" />
        </mxCell>
        <mxCell id="R_vnRSND07xOm1OVQKae-4" value="id_numero_securite_sociale" style="text;align=left;verticalAlign=top;spacingLeft=4;spacingRight=4;overflow=hidden;rotatable=0;points=[[0,0.5],[1,0.5]];portConstraint=eastwest;rounded=0;shadow=0;html=0;labelBackgroundColor=none;fontColor=#46495D;" vertex="1" parent="R_vnRSND07xOm1OVQKae-1">
          <mxGeometry y="78" width="170" height="26" as="geometry" />
        </mxCell>
        <mxCell id="R_vnRSND07xOm1OVQKae-12" value="lb_nom nvarchar(50)" style="text;align=left;verticalAlign=top;spacingLeft=4;spacingRight=4;overflow=hidden;rotatable=0;points=[[0,0.5],[1,0.5]];portConstraint=eastwest;rounded=0;shadow=0;html=0;labelBackgroundColor=none;fontColor=#46495D;" vertex="1" parent="R_vnRSND07xOm1OVQKae-1">
          <mxGeometry y="104" width="170" height="26" as="geometry" />
        </mxCell>
        <mxCell id="R_vnRSND07xOm1OVQKae-5" value="lb_prenom nvarchar(50)" style="text;align=left;verticalAlign=top;spacingLeft=4;spacingRight=4;overflow=hidden;rotatable=0;points=[[0,0.5],[1,0.5]];portConstraint=eastwest;rounded=0;shadow=0;html=0;labelBackgroundColor=none;fontColor=#46495D;" vertex="1" parent="R_vnRSND07xOm1OVQKae-1">
          <mxGeometry y="130" width="170" height="26" as="geometry" />
        </mxCell>
        <mxCell id="R_vnRSND07xOm1OVQKae-15" value="cd_ppc_contrat_adp" style="text;align=left;verticalAlign=top;spacingLeft=4;spacingRight=4;overflow=hidden;rotatable=0;points=[[0,0.5],[1,0.5]];portConstraint=eastwest;rounded=0;shadow=0;html=0;labelBackgroundColor=none;fontColor=#46495D;" vertex="1" parent="R_vnRSND07xOm1OVQKae-1">
          <mxGeometry y="156" width="170" height="26" as="geometry" />
        </mxCell>
        <mxCell id="R_vnRSND07xOm1OVQKae-14" value="dt_ppc_debut_contrat" style="text;align=left;verticalAlign=top;spacingLeft=4;spacingRight=4;overflow=hidden;rotatable=0;points=[[0,0.5],[1,0.5]];portConstraint=eastwest;rounded=0;shadow=0;html=0;labelBackgroundColor=none;fontColor=#46495D;" vertex="1" parent="R_vnRSND07xOm1OVQKae-1">
          <mxGeometry y="182" width="170" height="26" as="geometry" />
        </mxCell>
        <mxCell id="R_vnRSND07xOm1OVQKae-9" value="......" style="text;align=left;verticalAlign=top;spacingLeft=4;spacingRight=4;overflow=hidden;rotatable=0;points=[[0,0.5],[1,0.5]];portConstraint=eastwest;rounded=0;shadow=0;html=0;labelBackgroundColor=none;fontColor=#46495D;" vertex="1" parent="R_vnRSND07xOm1OVQKae-1">
          <mxGeometry y="208" width="170" height="26" as="geometry" />
        </mxCell>
        <mxCell id="R_vnRSND07xOm1OVQKae-10" value="cd_emp_work_accident_ts" style="text;align=left;verticalAlign=top;spacingLeft=4;spacingRight=4;overflow=hidden;rotatable=0;points=[[0,0.5],[1,0.5]];portConstraint=eastwest;rounded=0;shadow=0;html=0;fontStyle=0;labelBackgroundColor=none;fontColor=#46495D;" vertex="1" parent="R_vnRSND07xOm1OVQKae-1">
          <mxGeometry y="234" width="170" height="26" as="geometry" />
        </mxCell>
        <mxCell id="R_vnRSND07xOm1OVQKae-16" value="dwh.st_hr_ts_employee" style="swimlane;fontStyle=2;align=center;verticalAlign=top;childLayout=stackLayout;horizontal=1;startSize=26;horizontalStack=0;resizeParent=1;resizeLast=0;collapsible=1;marginBottom=0;rounded=0;shadow=0;strokeWidth=1;labelBackgroundColor=none;fillColor=#B2C9AB;strokeColor=#788AA3;fontColor=#46495D;" vertex="1" parent="WIyWlLk6GJQsqaUBKTNV-1">
          <mxGeometry x="706" width="193" height="260" as="geometry">
            <mxRectangle x="230" y="140" width="160" height="26" as="alternateBounds" />
          </mxGeometry>
        </mxCell>
        <mxCell id="R_vnRSND07xOm1OVQKae-17" value="id_payroll int" style="text;align=left;verticalAlign=top;spacingLeft=4;spacingRight=4;overflow=hidden;rotatable=0;points=[[0,0.5],[1,0.5]];portConstraint=eastwest;textShadow=0;fontStyle=0;labelBackgroundColor=none;fontColor=#46495D;" vertex="1" parent="R_vnRSND07xOm1OVQKae-16">
          <mxGeometry y="26" width="193" height="26" as="geometry" />
        </mxCell>
        <mxCell id="R_vnRSND07xOm1OVQKae-18" value="cd_matricule char(8)" style="text;align=left;verticalAlign=top;spacingLeft=4;spacingRight=4;overflow=hidden;rotatable=0;points=[[0,0.5],[1,0.5]];portConstraint=eastwest;labelBackgroundColor=none;fontColor=#46495D;" vertex="1" parent="R_vnRSND07xOm1OVQKae-16">
          <mxGeometry y="52" width="193" height="26" as="geometry" />
        </mxCell>
        <mxCell id="R_vnRSND07xOm1OVQKae-19" value="id_numero_securite_sociale char(13)" style="text;align=left;verticalAlign=top;spacingLeft=4;spacingRight=4;overflow=hidden;rotatable=0;points=[[0,0.5],[1,0.5]];portConstraint=eastwest;rounded=0;shadow=0;html=0;labelBackgroundColor=none;fontColor=#46495D;" vertex="1" parent="R_vnRSND07xOm1OVQKae-16">
          <mxGeometry y="78" width="193" height="26" as="geometry" />
        </mxCell>
        <mxCell id="R_vnRSND07xOm1OVQKae-20" value="lb_nom nvarchar(50)" style="text;align=left;verticalAlign=top;spacingLeft=4;spacingRight=4;overflow=hidden;rotatable=0;points=[[0,0.5],[1,0.5]];portConstraint=eastwest;rounded=0;shadow=0;html=0;labelBackgroundColor=none;fontColor=#46495D;" vertex="1" parent="R_vnRSND07xOm1OVQKae-16">
          <mxGeometry y="104" width="193" height="26" as="geometry" />
        </mxCell>
        <mxCell id="R_vnRSND07xOm1OVQKae-21" value="lb_prenom nvarchar(50)" style="text;align=left;verticalAlign=top;spacingLeft=4;spacingRight=4;overflow=hidden;rotatable=0;points=[[0,0.5],[1,0.5]];portConstraint=eastwest;rounded=0;shadow=0;html=0;labelBackgroundColor=none;fontColor=#46495D;" vertex="1" parent="R_vnRSND07xOm1OVQKae-16">
          <mxGeometry y="130" width="193" height="26" as="geometry" />
        </mxCell>
        <mxCell id="R_vnRSND07xOm1OVQKae-22" value="cd_ppc_contrat_ts varchar(50)" style="text;align=left;verticalAlign=top;spacingLeft=4;spacingRight=4;overflow=hidden;rotatable=0;points=[[0,0.5],[1,0.5]];portConstraint=eastwest;rounded=0;shadow=0;html=0;labelBackgroundColor=none;fontColor=#46495D;" vertex="1" parent="R_vnRSND07xOm1OVQKae-16">
          <mxGeometry y="156" width="193" height="26" as="geometry" />
        </mxCell>
        <mxCell id="R_vnRSND07xOm1OVQKae-23" value="dt_ppc_debut_contrat date" style="text;align=left;verticalAlign=top;spacingLeft=4;spacingRight=4;overflow=hidden;rotatable=0;points=[[0,0.5],[1,0.5]];portConstraint=eastwest;rounded=0;shadow=0;html=0;labelBackgroundColor=none;fontColor=#46495D;" vertex="1" parent="R_vnRSND07xOm1OVQKae-16">
          <mxGeometry y="182" width="193" height="26" as="geometry" />
        </mxCell>
        <mxCell id="R_vnRSND07xOm1OVQKae-24" value="......" style="text;align=left;verticalAlign=top;spacingLeft=4;spacingRight=4;overflow=hidden;rotatable=0;points=[[0,0.5],[1,0.5]];portConstraint=eastwest;rounded=0;shadow=0;html=0;labelBackgroundColor=none;fontColor=#46495D;" vertex="1" parent="R_vnRSND07xOm1OVQKae-16">
          <mxGeometry y="208" width="193" height="26" as="geometry" />
        </mxCell>
        <mxCell id="R_vnRSND07xOm1OVQKae-25" value="cd_emp_work_accident_ts varchar(5)" style="text;align=left;verticalAlign=top;spacingLeft=4;spacingRight=4;overflow=hidden;rotatable=0;points=[[0,0.5],[1,0.5]];portConstraint=eastwest;rounded=0;shadow=0;html=0;fontStyle=0;labelBackgroundColor=none;fontColor=#46495D;" vertex="1" parent="R_vnRSND07xOm1OVQKae-16">
          <mxGeometry y="234" width="193" height="26" as="geometry" />
        </mxCell>
        <mxCell id="R_vnRSND07xOm1OVQKae-26" style="edgeStyle=orthogonalEdgeStyle;rounded=0;orthogonalLoop=1;jettySize=auto;html=1;exitX=1;exitY=0.5;exitDx=0;exitDy=0;entryX=0;entryY=0.5;entryDx=0;entryDy=0;" edge="1" parent="WIyWlLk6GJQsqaUBKTNV-1" source="R_vnRSND07xOm1OVQKae-5" target="R_vnRSND07xOm1OVQKae-21">
          <mxGeometry relative="1" as="geometry" />
        </mxCell>
        <mxCell id="R_vnRSND07xOm1OVQKae-27" value="&lt;font style=&quot;font-size: 10px;&quot;&gt;Table Staging&amp;nbsp;&lt;/font&gt;&lt;div style=&quot;font-size: 10px;&quot;&gt;&lt;font style=&quot;font-size: 10px;&quot;&gt;(Type colonne définie)&lt;/font&gt;&lt;/div&gt;" style="text;html=1;align=center;verticalAlign=middle;resizable=0;points=[];autosize=1;strokeColor=none;fillColor=none;fontSize=10;" vertex="1" parent="WIyWlLk6GJQsqaUBKTNV-1">
          <mxGeometry x="590" y="102" width="120" height="40" as="geometry" />
        </mxCell>
        <mxCell id="R_vnRSND07xOm1OVQKae-41" style="edgeStyle=orthogonalEdgeStyle;rounded=0;orthogonalLoop=1;jettySize=auto;html=1;entryX=0;entryY=0.5;entryDx=0;entryDy=0;exitX=1.01;exitY=0.808;exitDx=0;exitDy=0;exitPerimeter=0;" edge="1" parent="WIyWlLk6GJQsqaUBKTNV-1" source="R_vnRSND07xOm1OVQKae-19" target="R_vnRSND07xOm1OVQKae-34">
          <mxGeometry relative="1" as="geometry">
            <mxPoint x="840" y="140" as="sourcePoint" />
            <mxPoint x="933" y="139" as="targetPoint" />
          </mxGeometry>
        </mxCell>
        <mxCell id="R_vnRSND07xOm1OVQKae-43" value="Table Fait&lt;div style=&quot;font-size: 10px;&quot;&gt;Stocké et Historisé&lt;/div&gt;" style="text;html=1;align=center;verticalAlign=middle;resizable=0;points=[];autosize=1;strokeColor=none;fillColor=none;fontSize=10;" vertex="1" parent="WIyWlLk6GJQsqaUBKTNV-1">
          <mxGeometry x="923" width="110" height="40" as="geometry" />
        </mxCell>
        <mxCell id="R_vnRSND07xOm1OVQKae-45" value="dwh.fa_hr_ts_employee_transforme_adp" style="swimlane;fontStyle=2;align=center;verticalAlign=top;childLayout=stackLayout;horizontal=1;startSize=26;horizontalStack=0;resizeParent=1;resizeLast=0;collapsible=1;marginBottom=0;rounded=0;shadow=0;strokeWidth=1;labelBackgroundColor=none;fillColor=#B2C9AB;strokeColor=#788AA3;fontColor=#46495D;" vertex="1" parent="WIyWlLk6GJQsqaUBKTNV-1">
          <mxGeometry x="1057" y="202" width="223" height="286" as="geometry">
            <mxRectangle x="230" y="140" width="160" height="26" as="alternateBounds" />
          </mxGeometry>
        </mxCell>
        <mxCell id="R_vnRSND07xOm1OVQKae-46" value="dt_transforme datetime" style="text;align=left;verticalAlign=top;spacingLeft=4;spacingRight=4;overflow=hidden;rotatable=0;points=[[0,0.5],[1,0.5]];portConstraint=eastwest;textShadow=0;fontStyle=0;labelBackgroundColor=none;fontColor=#46495D;" vertex="1" parent="R_vnRSND07xOm1OVQKae-45">
          <mxGeometry y="26" width="223" height="26" as="geometry" />
        </mxCell>
        <mxCell id="R_vnRSND07xOm1OVQKae-47" value="id_payroll int" style="text;align=left;verticalAlign=top;spacingLeft=4;spacingRight=4;overflow=hidden;rotatable=0;points=[[0,0.5],[1,0.5]];portConstraint=eastwest;textShadow=0;fontStyle=0;labelBackgroundColor=none;fontColor=#46495D;" vertex="1" parent="R_vnRSND07xOm1OVQKae-45">
          <mxGeometry y="52" width="223" height="26" as="geometry" />
        </mxCell>
        <mxCell id="R_vnRSND07xOm1OVQKae-48" value="cd_matricule char(8)" style="text;align=left;verticalAlign=top;spacingLeft=4;spacingRight=4;overflow=hidden;rotatable=0;points=[[0,0.5],[1,0.5]];portConstraint=eastwest;labelBackgroundColor=none;fontColor=#46495D;" vertex="1" parent="R_vnRSND07xOm1OVQKae-45">
          <mxGeometry y="78" width="223" height="26" as="geometry" />
        </mxCell>
        <mxCell id="R_vnRSND07xOm1OVQKae-49" value="id_numero_securite_sociale char(13)" style="text;align=left;verticalAlign=top;spacingLeft=4;spacingRight=4;overflow=hidden;rotatable=0;points=[[0,0.5],[1,0.5]];portConstraint=eastwest;rounded=0;shadow=0;html=0;labelBackgroundColor=none;fontColor=#46495D;" vertex="1" parent="R_vnRSND07xOm1OVQKae-45">
          <mxGeometry y="104" width="223" height="26" as="geometry" />
        </mxCell>
        <mxCell id="R_vnRSND07xOm1OVQKae-50" value="lb_nom nvarchar(50)" style="text;align=left;verticalAlign=top;spacingLeft=4;spacingRight=4;overflow=hidden;rotatable=0;points=[[0,0.5],[1,0.5]];portConstraint=eastwest;rounded=0;shadow=0;html=0;labelBackgroundColor=none;fontColor=#46495D;" vertex="1" parent="R_vnRSND07xOm1OVQKae-45">
          <mxGeometry y="130" width="223" height="26" as="geometry" />
        </mxCell>
        <mxCell id="R_vnRSND07xOm1OVQKae-51" value="lb_prenom nvarchar(50)" style="text;align=left;verticalAlign=top;spacingLeft=4;spacingRight=4;overflow=hidden;rotatable=0;points=[[0,0.5],[1,0.5]];portConstraint=eastwest;rounded=0;shadow=0;html=0;labelBackgroundColor=none;fontColor=#46495D;" vertex="1" parent="R_vnRSND07xOm1OVQKae-45">
          <mxGeometry y="156" width="223" height="26" as="geometry" />
        </mxCell>
        <mxCell id="R_vnRSND07xOm1OVQKae-52" value="cd_ppc_contrat_adp char(2)" style="text;align=left;verticalAlign=top;spacingLeft=4;spacingRight=4;overflow=hidden;rotatable=0;points=[[0,0.5],[1,0.5]];portConstraint=eastwest;rounded=0;shadow=0;html=0;labelBackgroundColor=none;fontColor=#46495D;" vertex="1" parent="R_vnRSND07xOm1OVQKae-45">
          <mxGeometry y="182" width="223" height="26" as="geometry" />
        </mxCell>
        <mxCell id="R_vnRSND07xOm1OVQKae-53" value="dt_ppc_debut_contrat date" style="text;align=left;verticalAlign=top;spacingLeft=4;spacingRight=4;overflow=hidden;rotatable=0;points=[[0,0.5],[1,0.5]];portConstraint=eastwest;rounded=0;shadow=0;html=0;labelBackgroundColor=none;fontColor=#46495D;" vertex="1" parent="R_vnRSND07xOm1OVQKae-45">
          <mxGeometry y="208" width="223" height="26" as="geometry" />
        </mxCell>
        <mxCell id="R_vnRSND07xOm1OVQKae-54" value="......" style="text;align=left;verticalAlign=top;spacingLeft=4;spacingRight=4;overflow=hidden;rotatable=0;points=[[0,0.5],[1,0.5]];portConstraint=eastwest;rounded=0;shadow=0;html=0;labelBackgroundColor=none;fontColor=#46495D;" vertex="1" parent="R_vnRSND07xOm1OVQKae-45">
          <mxGeometry y="234" width="223" height="26" as="geometry" />
        </mxCell>
        <mxCell id="R_vnRSND07xOm1OVQKae-55" value="cd_emp_work_accident_adp varchar(5)" style="text;align=left;verticalAlign=top;spacingLeft=4;spacingRight=4;overflow=hidden;rotatable=0;points=[[0,0.5],[1,0.5]];portConstraint=eastwest;rounded=0;shadow=0;html=0;fontStyle=0;labelBackgroundColor=none;fontColor=#46495D;" vertex="1" parent="R_vnRSND07xOm1OVQKae-45">
          <mxGeometry y="260" width="223" height="26" as="geometry" />
        </mxCell>
        <mxCell id="R_vnRSND07xOm1OVQKae-56" style="edgeStyle=orthogonalEdgeStyle;rounded=0;orthogonalLoop=1;jettySize=auto;html=1;exitX=1;exitY=0.5;exitDx=0;exitDy=0;entryX=0;entryY=0.5;entryDx=0;entryDy=0;" edge="1" parent="WIyWlLk6GJQsqaUBKTNV-1" source="R_vnRSND07xOm1OVQKae-22" target="R_vnRSND07xOm1OVQKae-50">
          <mxGeometry relative="1" as="geometry" />
        </mxCell>
        <mxCell id="R_vnRSND07xOm1OVQKae-30" value="dwh.fa_hr_ts_employee" style="swimlane;fontStyle=2;align=center;verticalAlign=top;childLayout=stackLayout;horizontal=1;startSize=26;horizontalStack=0;resizeParent=1;resizeLast=0;collapsible=1;marginBottom=0;rounded=0;shadow=0;strokeWidth=1;labelBackgroundColor=none;fillColor=#B2C9AB;strokeColor=#788AA3;fontColor=#46495D;" vertex="1" parent="WIyWlLk6GJQsqaUBKTNV-1">
          <mxGeometry x="1057" y="-100" width="223" height="286" as="geometry">
            <mxRectangle x="230" y="140" width="160" height="26" as="alternateBounds" />
          </mxGeometry>
        </mxCell>
        <mxCell id="R_vnRSND07xOm1OVQKae-31" value="dt_historisee Datetime" style="text;align=left;verticalAlign=top;spacingLeft=4;spacingRight=4;overflow=hidden;rotatable=0;points=[[0,0.5],[1,0.5]];portConstraint=eastwest;textShadow=0;fontStyle=0;labelBackgroundColor=none;fontColor=#46495D;" vertex="1" parent="R_vnRSND07xOm1OVQKae-30">
          <mxGeometry y="26" width="223" height="26" as="geometry" />
        </mxCell>
        <mxCell id="R_vnRSND07xOm1OVQKae-40" value="id_payroll int" style="text;align=left;verticalAlign=top;spacingLeft=4;spacingRight=4;overflow=hidden;rotatable=0;points=[[0,0.5],[1,0.5]];portConstraint=eastwest;textShadow=0;fontStyle=0;labelBackgroundColor=none;fontColor=#46495D;" vertex="1" parent="R_vnRSND07xOm1OVQKae-30">
          <mxGeometry y="52" width="223" height="26" as="geometry" />
        </mxCell>
        <mxCell id="R_vnRSND07xOm1OVQKae-32" value="cd_matricule char(8)" style="text;align=left;verticalAlign=top;spacingLeft=4;spacingRight=4;overflow=hidden;rotatable=0;points=[[0,0.5],[1,0.5]];portConstraint=eastwest;labelBackgroundColor=none;fontColor=#46495D;" vertex="1" parent="R_vnRSND07xOm1OVQKae-30">
          <mxGeometry y="78" width="223" height="26" as="geometry" />
        </mxCell>
        <mxCell id="R_vnRSND07xOm1OVQKae-33" value="id_numero_securite_sociale char(13)" style="text;align=left;verticalAlign=top;spacingLeft=4;spacingRight=4;overflow=hidden;rotatable=0;points=[[0,0.5],[1,0.5]];portConstraint=eastwest;rounded=0;shadow=0;html=0;labelBackgroundColor=none;fontColor=#46495D;" vertex="1" parent="R_vnRSND07xOm1OVQKae-30">
          <mxGeometry y="104" width="223" height="26" as="geometry" />
        </mxCell>
        <mxCell id="R_vnRSND07xOm1OVQKae-34" value="lb_nom nvarchar(50)" style="text;align=left;verticalAlign=top;spacingLeft=4;spacingRight=4;overflow=hidden;rotatable=0;points=[[0,0.5],[1,0.5]];portConstraint=eastwest;rounded=0;shadow=0;html=0;labelBackgroundColor=none;fontColor=#46495D;" vertex="1" parent="R_vnRSND07xOm1OVQKae-30">
          <mxGeometry y="130" width="223" height="26" as="geometry" />
        </mxCell>
        <mxCell id="R_vnRSND07xOm1OVQKae-35" value="lb_prenom nvarchar(50)" style="text;align=left;verticalAlign=top;spacingLeft=4;spacingRight=4;overflow=hidden;rotatable=0;points=[[0,0.5],[1,0.5]];portConstraint=eastwest;rounded=0;shadow=0;html=0;labelBackgroundColor=none;fontColor=#46495D;" vertex="1" parent="R_vnRSND07xOm1OVQKae-30">
          <mxGeometry y="156" width="223" height="26" as="geometry" />
        </mxCell>
        <mxCell id="R_vnRSND07xOm1OVQKae-36" value="cd_ppc_contrat_adp varchar(50)" style="text;align=left;verticalAlign=top;spacingLeft=4;spacingRight=4;overflow=hidden;rotatable=0;points=[[0,0.5],[1,0.5]];portConstraint=eastwest;rounded=0;shadow=0;html=0;labelBackgroundColor=none;fontColor=#46495D;" vertex="1" parent="R_vnRSND07xOm1OVQKae-30">
          <mxGeometry y="182" width="223" height="26" as="geometry" />
        </mxCell>
        <mxCell id="R_vnRSND07xOm1OVQKae-37" value="dt_ppc_debut_contrat date" style="text;align=left;verticalAlign=top;spacingLeft=4;spacingRight=4;overflow=hidden;rotatable=0;points=[[0,0.5],[1,0.5]];portConstraint=eastwest;rounded=0;shadow=0;html=0;labelBackgroundColor=none;fontColor=#46495D;" vertex="1" parent="R_vnRSND07xOm1OVQKae-30">
          <mxGeometry y="208" width="223" height="26" as="geometry" />
        </mxCell>
        <mxCell id="R_vnRSND07xOm1OVQKae-38" value="......" style="text;align=left;verticalAlign=top;spacingLeft=4;spacingRight=4;overflow=hidden;rotatable=0;points=[[0,0.5],[1,0.5]];portConstraint=eastwest;rounded=0;shadow=0;html=0;labelBackgroundColor=none;fontColor=#46495D;" vertex="1" parent="R_vnRSND07xOm1OVQKae-30">
          <mxGeometry y="234" width="223" height="26" as="geometry" />
        </mxCell>
        <mxCell id="R_vnRSND07xOm1OVQKae-39" value="cd_emp_work_accident_ts varchar(5)" style="text;align=left;verticalAlign=top;spacingLeft=4;spacingRight=4;overflow=hidden;rotatable=0;points=[[0,0.5],[1,0.5]];portConstraint=eastwest;rounded=0;shadow=0;html=0;fontStyle=0;labelBackgroundColor=none;fontColor=#46495D;" vertex="1" parent="R_vnRSND07xOm1OVQKae-30">
          <mxGeometry y="260" width="223" height="26" as="geometry" />
        </mxCell>
        <mxCell id="R_vnRSND07xOm1OVQKae-57" value="Table Fait&lt;div style=&quot;font-size: 10px;&quot;&gt;Transformé au ADP&lt;/div&gt;" style="text;html=1;align=center;verticalAlign=middle;resizable=0;points=[];autosize=1;strokeColor=none;fillColor=none;fontSize=10;" vertex="1" parent="WIyWlLk6GJQsqaUBKTNV-1">
          <mxGeometry x="940" y="186" width="110" height="40" as="geometry" />
        </mxCell>
      </root>
    </mxGraphModel>
  </diagram>
</mxfile>
